<?xml version="1.0" encoding="UTF-8" standalone="no"?>
<!DOCTYPE svg PUBLIC "-//W3C//DTD SVG 1.1//EN" "http://www.w3.org/Graphics/SVG/1.1/DTD/svg11.dtd">
<svg width="100%" height="100%" viewBox="0 0 128 128" version="1.1" xmlns="http://www.w3.org/2000/svg" xmlns:xlink="http://www.w3.org/1999/xlink" xml:space="preserve" xmlns:serif="http://www.serif.com/" style="fill-rule:evenodd;clip-rule:evenodd;stroke-linejoin:round;stroke-miterlimit:2;">
    <g transform="matrix(0.1,0,0,-0.1,0,128)">
        <path d="M317,1123C313,1120 310,1084 310,1043C310,988 307,970 296,970C274,970 230,919 230,894C230,877 221,869 195,860C149,845 139,823 101,660C71,528 67,484 69,274C70,211 73,200 96,176L123,150L664,152L1205,155L1208,186C1213,235 1173,326 1134,358C1109,378 1100,393 1100,416C1100,494 1040,618 961,703C861,809 749,857 579,867L473,873L460,907C453,927 435,949 419,959C392,974 390,980 390,1033C390,1065 385,1100 380,1111C370,1129 330,1137 317,1123ZM668,695C719,673 749,643 776,585C804,526 806,504 784,496C759,486 296,489 281,499C269,507 268,521 279,597C287,645 297,691 302,698C318,717 619,715 668,695ZM1105,270C1113,254 1120,239 1120,235C1120,232 902,230 635,230L150,230L150,300L1089,300L1105,270Z" style="fill:url(#_Linear1);fill-rule:nonzero;"/>
    </g>
    <defs>
        <linearGradient id="_Linear1" x1="0" y1="0" x2="1" y2="0" gradientUnits="userSpaceOnUse" gradientTransform="matrix(903.229,63.9844,63.9844,-903.229,107.543,386.424)"><stop offset="0" style="stop-color:rgb(85,185,71);stop-opacity:1"/><stop offset="1" style="stop-color:rgb(0,171,156);stop-opacity:1"/></linearGradient>
    </defs>
</svg>
